<svg xmlns="http://www.w3.org/2000/svg" xmlns:xlink="http://www.w3.org/1999/xlink" width="1495.608" height="919.273" viewBox="150 115 1222 709">
  <defs>
    <filter id="Metaball_Union" x="0" y="0" width="1495.608" height="919.273" filterUnits="userSpaceOnUse">
      <feOffset input="SourceAlpha"/>
      <feGaussianBlur stdDeviation="10" result="blur"/>
      <feFlood flood-color="#121212" result="color"/>
      <feComposite operator="out" in="SourceGraphic" in2="blur"/>
      <feComposite operator="in" in="color"/>
      <feComposite operator="in" in2="SourceGraphic"/>
    </filter>
  </defs>
  <g data-type="innerShadowGroup">
    <path id="Metaball_Union-2" data-name="Metaball Union" d="M1294.553-814.443c-62.842-42.286-81.768-44.859-151.707-18.892a253.145,253.145,0,0,1-94.5,18.171c-111.251,0-205.79-71.562-240.1-171.164-19.833-53.374-24.955-62.709-87.382-101.5a323.907,323.907,0,0,1-30.612-20.722c-75.591-56.283-95.361-57.008-165.413-37.773a253.917,253.917,0,0,1-73.306,10.744c-140.211,0-253.875-113.664-253.875-253.875s113.664-253.875,253.875-253.875a253.087,253.087,0,0,1,99.626,20.293c67.075,26.685,87,28.327,166.933-18.259a321.481,321.481,0,0,1,168-47.077c166.179,0,303.044,125.492,320.98,286.888,15.35,117.286,77,153.918,167.436,133a254.2,254.2,0,0,1,64.887-8.368c140.212,0,253.875,113.664,253.875,253.875S1579.607-769.1,1439.4-769.1A252.723,252.723,0,0,1,1294.553-814.443Z" transform="translate(-197.662 1688.37)" fill="#454545"/>
    <g transform="matrix(1, 0, 0, 1, 0, 0)" filter="url(#Metaball_Union)">
      <path id="Metaball_Union-3" data-name="Metaball Union" d="M1294.553-814.443c-62.842-42.286-81.768-44.859-151.707-18.892a253.145,253.145,0,0,1-94.5,18.171c-111.251,0-205.79-71.562-240.1-171.164-19.833-53.374-24.955-62.709-87.382-101.5a323.907,323.907,0,0,1-30.612-20.722c-75.591-56.283-95.361-57.008-165.413-37.773a253.917,253.917,0,0,1-73.306,10.744c-140.211,0-253.875-113.664-253.875-253.875s113.664-253.875,253.875-253.875a253.087,253.087,0,0,1,99.626,20.293c67.075,26.685,87,28.327,166.933-18.259a321.481,321.481,0,0,1,168-47.077c166.179,0,303.044,125.492,320.98,286.888,15.35,117.286,77,153.918,167.436,133a254.2,254.2,0,0,1,64.887-8.368c140.212,0,253.875,113.664,253.875,253.875S1579.607-769.1,1439.4-769.1A252.723,252.723,0,0,1,1294.553-814.443Z" transform="translate(-197.66 1688.37)" fill="#fff"/>
    </g>
  </g>
</svg>
